<?xml version="1.0" encoding="UTF-8" standalone="no"?>
<svg width="71px" height="70px" viewBox="0 0 71 70" version="1.1" xmlns="http://www.w3.org/2000/svg" xmlns:xlink="http://www.w3.org/1999/xlink" xmlns:sketch="http://www.bohemiancoding.com/sketch/ns">
    <!-- Generator: Sketch 3.5.2 (25235) - http://www.bohemiancoding.com/sketch -->
    <title>logo</title>
    <desc>Created with Sketch.</desc>
    <defs>
        <path d="M26.9030263,48.7098684 C14.9975,48.7098684 5.34118421,39.0047368 5.34118421,27.0421053 C5.34118421,15.0794737 14.9975,5.37434211 26.9030263,5.37434211 C38.8085526,5.37434211 48.4648684,15.0794737 48.4648684,27.0421053 C48.4648684,39.0047368 38.8085526,48.7098684 26.9030263,48.7098684 L26.9030263,48.7098684 Z M26.9030263,0.386842105 C12.1827632,0.386842105 0.248684211,12.3209211 0.248684211,27.0421053 C0.248684211,41.7623684 12.1827632,53.6964474 26.9030263,53.6964474 C41.6242105,53.6964474 53.5582895,41.7623684 53.5582895,27.0421053 C53.5582895,12.3209211 41.6242105,0.386842105 26.9030263,0.386842105 L26.9030263,0.386842105 Z" id="path-1"></path>
        <path d="M35.1925,61.7943421 C20.5772368,61.7943421 8.72973684,49.9468421 8.72973684,35.3315789 C8.72973684,20.7163158 20.5772368,8.87802632 35.1925,8.87802632 C49.8077632,8.87802632 61.6552632,20.7264474 61.6552632,35.3407895 C61.6552632,49.9560526 49.8077632,61.7943421 35.1925,61.7943421 L35.1925,61.7943421 Z M35.1925,0.701842105 C16.0714474,0.701842105 0.562763158,16.2096053 0.562763158,35.3315789 C0.562763158,54.4526316 16.0714474,69.9613158 35.1925,69.9613158 C54.3144737,69.9613158 69.8231579,54.4526316 69.8231579,35.3315789 C69.8231579,16.2096053 54.3144737,0.701842105 35.1925,0.701842105 L35.1925,0.701842105 Z" id="path-3"></path>
    </defs>
    <g id="Page-1" stroke="none" stroke-width="1" fill="none" fill-rule="evenodd" sketch:type="MSPage">
        <g id="roposo.com-home-page" sketch:type="MSArtboardGroup" transform="translate(-685.000000, -110.000000)">
            <g id="Group" sketch:type="MSLayerGroup" transform="translate(431.000000, 110.000000)">
                <g id="logo" transform="translate(252.000000, 0.000000)">
                    <g id="Group-11" transform="translate(10.684211, 8.289474)">
                        <mask id="mask-2" sketch:name="Clip 7" fill="white">
                            <use xlink:href="#path-1"></use>
                        </mask>
                        <g id="Clip-7"></g>
                        <path d="M0.248684211,0.386842105 L26.9030263,0.386842105 L26.9030263,27.0421053 L0.248684211,27.0421053 L0.248684211,0.386842105 Z" id="Fill-6" fill="#DB942F" sketch:type="MSShapeGroup" mask="url(#mask-2)"></path>
                        <path d="M26.9030263,0.386842105 L53.5582895,0.386842105 L53.5582895,27.0421053 L26.9030263,27.0421053 L26.9030263,0.386842105 Z" id="Fill-8" fill="#4C2B70" sketch:type="MSShapeGroup" mask="url(#mask-2)"></path>
                        <path d="M0.248684211,27.0421053 L26.9030263,27.0421053 L26.9030263,53.6964474 L0.248684211,53.6964474 L0.248684211,27.0421053 Z" id="Fill-9" fill="#C8425C" sketch:type="MSShapeGroup" mask="url(#mask-2)"></path>
                        <path d="M26.9030263,27.0421053 L53.5582895,27.0421053 L53.5582895,53.6964474 L26.9030263,53.6964474 L26.9030263,27.0421053 Z" id="Fill-10" fill="#3F968F" sketch:type="MSShapeGroup" mask="url(#mask-2)"></path>
                    </g>
                    <g id="Group-17" transform="translate(2.394737, 0.000000)">
                        <mask id="mask-4" sketch:name="Clip 13" fill="white">
                            <use xlink:href="#path-3"></use>
                        </mask>
                        <g id="Clip-13"></g>
                        <path d="M0.562763158,0.701842105 L35.1925,0.701842105 L35.1925,35.3315789 L0.562763158,35.3315789 L0.562763158,0.701842105 Z" id="Fill-12" fill="#EAAA36" sketch:type="MSShapeGroup" mask="url(#mask-4)"></path>
                        <path d="M35.1925,0.701842105 L69.8231579,0.701842105 L69.8231579,35.3315789 L35.1925,35.3315789 L35.1925,0.701842105 Z" id="Fill-14" fill="#61357E" sketch:type="MSShapeGroup" mask="url(#mask-4)"></path>
                        <path d="M0.562763158,35.3315789 L35.1925,35.3315789 L35.1925,69.9613158 L0.562763158,69.9613158 L0.562763158,35.3315789 Z" id="Fill-15" fill="#DA5166" sketch:type="MSShapeGroup" mask="url(#mask-4)"></path>
                        <path d="M35.1925,35.3315789 L69.8231579,35.3315789 L69.8231579,69.9613158 L35.1925,69.9613158 L35.1925,35.3315789 Z" id="Fill-16" fill="#52B1A9" sketch:type="MSShapeGroup" mask="url(#mask-4)"></path>
                    </g>
                </g>
            </g>
        </g>
    </g>
</svg>