<?xml version="1.0" encoding="utf-8"?>
<!-- Generator: Adobe Illustrator 19.2.1, SVG Export Plug-In . SVG Version: 6.00 Build 0)  -->
<svg version="1.1" id="Layer_1" xmlns="http://www.w3.org/2000/svg" xmlns:xlink="http://www.w3.org/1999/xlink" x="0px" y="0px"
	 viewBox="0 0 161 30" style="enable-background:new 0 0 161 30;" xml:space="preserve">
<g id="Page-1">
	<g id="roposo-widget" transform="translate(-519.000000, -59.000000)">
		<g id="logo-full" transform="translate(519.000000, 59.000000)">
			<path id="Fill-1" d="M4.4,14h1.4c4.1,0,6.1-1.6,6.1-4.7C11.9,6.4,9.9,5,6,5H4.4V14L4.4,14z M9.8,17.3l8.8,12.1h-5.2L5.2,17.7H4.4
				v11.6H0.1V1h5c3.8,0,6.5,0.7,8.1,2.1C15,4.7,16,6.7,16,9.3c0,2-0.6,3.7-1.7,5.2C13.2,15.9,11.7,16.9,9.8,17.3L9.8,17.3z"/>
			<path id="Fill-2" d="M60.1,13.9h1.6c3.9,0,5.9-1.5,5.9-4.5c0-2.9-2-4.4-6.1-4.4h-1.4V13.9L60.1,13.9z M60.1,17.8v11.5h-4.3V1h4.9
				c2.4,0,4.2,0.2,5.4,0.5s2.3,1,3.2,1.9c1.6,1.6,2.4,3.6,2.4,6c0,2.6-0.9,4.7-2.6,6.2s-4.1,2.3-7,2.3h-2V17.8z"/>
			<path id="Fill-3" d="M79.1,15.1c0,3.1,1.1,5.7,3.2,7.7s4.5,3,7.3,3c3,0,5.5-1,7.5-3.1s3.1-4.6,3.1-7.6s-1-5.6-3-7.6
				c-2-2.1-4.5-3.1-7.5-3.1s-5.5,1-7.5,3.1C80.1,9.6,79.1,12.1,79.1,15.1L79.1,15.1z M74.8,15c0-4,1.5-7.4,4.4-10.3
				s6.4-4.3,10.5-4.3c4,0,7.5,1.4,10.4,4.3s4.4,6.4,4.4,10.4c0,4.1-1.5,7.5-4.4,10.4s-6.5,4.3-10.6,4.3c-3.7,0-7-1.3-9.9-3.8
				C76.4,23.3,74.8,19.6,74.8,15L74.8,15z"/>
			<path id="Fill-4" d="M125.9,5.2l-3.5,2.1c-0.7-1.1-1.3-1.9-1.9-2.2c-0.6-0.4-1.4-0.6-2.4-0.6c-1.2,0-2.2,0.3-3,1S113.9,7,113.9,8
				c0,1.4,1,2.5,3.1,3.4l2.8,1.2c2.3,0.9,4,2.1,5.1,3.4c1.1,1.3,1.6,3,1.6,4.9c0,2.6-0.9,4.8-2.6,6.5c-1.8,1.7-3.9,2.6-6.5,2.6
				c-2.5,0-4.5-0.7-6.1-2.2s-2.6-3.5-3-6.2l4.3-1c0.2,1.7,0.5,2.8,1,3.5c0.9,1.2,2.2,1.8,3.9,1.8c1.3,0,2.4-0.4,3.3-1.3
				s1.3-2,1.3-3.4c0-0.6-0.1-1.1-0.2-1.5c-0.2-0.5-0.4-0.9-0.7-1.3c-0.3-0.4-0.7-0.7-1.3-1.1c-0.5-0.3-1.1-0.7-1.8-1l-2.7-1.1
				c-3.9-1.6-5.8-4-5.8-7.2c0-2.1,0.8-3.9,2.4-5.3s3.7-2.2,6.1-2.2C121.5,0.4,124.1,2,125.9,5.2"/>
			<path id="Fill-5" d="M134.7,15.1c0,3.1,1.1,5.7,3.2,7.7c2.1,2,4.5,3,7.3,3c3,0,5.5-1,7.5-3.1s3.1-4.6,3.1-7.6s-1-5.6-3-7.6
				c-2-2.1-4.5-3.1-7.5-3.1s-5.5,1-7.5,3.1C135.7,9.6,134.7,12.1,134.7,15.1L134.7,15.1z M130.4,15c0-4,1.5-7.4,4.4-10.3
				s6.4-4.3,10.5-4.3c4,0,7.5,1.4,10.4,4.3s4.4,6.4,4.4,10.4c0,4.1-1.5,7.5-4.4,10.4s-6.5,4.3-10.6,4.3c-3.7,0-7-1.3-9.9-3.8
				C132,23.3,130.4,19.6,130.4,15L130.4,15z"/>
		</g>
	</g>
</g>
</svg>
